<?xml version="1.0" encoding="utf-8"?>
<!-- Generator: Adobe Illustrator 21.1.0, SVG Export Plug-In . SVG Version: 6.00 Build 0)  -->
<svg version="1.1" id="Слой_1" xmlns="http://www.w3.org/2000/svg" xmlns:xlink="http://www.w3.org/1999/xlink" x="0px" y="0px"
	 viewBox="0 0 91.5 24.6" style="enable-background:new 0 0 91.5 24.6;" xml:space="preserve">
<style type="text/css">
	.st0{fill:#3A405B;}
</style>
<path class="st0" d="M91.3,14.2c-0.2,0.3-0.5,0.7-0.8,1.2c-0.3,0.4-0.7,0.9-1.1,1.4c-0.4,0.5-0.8,0.9-1.3,1.4
	c-0.4,0.5-0.9,0.9-1.3,1.2c-0.4,0.4-0.9,0.6-1.3,0.9c-0.4,0.2-0.8,0.3-1.1,0.3c-0.2,0-0.5-0.1-0.7-0.2c-0.2-0.1-0.4-0.3-0.6-0.6
	c-0.2-0.2-0.3-0.5-0.4-0.8c-0.1-0.3-0.1-0.6-0.1-0.8c0-0.1,0-0.3,0.1-0.6c-0.7,0.8-1.5,1.5-2.2,2c-0.7,0.5-1.5,0.7-2.2,0.7
	c-0.2,0-0.5-0.1-0.8-0.2c-0.3-0.1-0.5-0.3-0.8-0.6s-0.4-0.7-0.5-1.1c-0.1-0.3-0.1-0.6-0.2-1c-0.2,0.2-0.4,0.5-0.6,0.7
	c-0.4,0.5-0.8,0.9-1.3,1.3c-0.4,0.4-0.9,0.7-1.3,0.9c-0.4,0.2-0.8,0.4-1.2,0.4c-0.4,0-0.8-0.1-1-0.2c-0.3-0.1-0.5-0.3-0.7-0.6
	c-0.2-0.2-0.3-0.5-0.3-0.9c-0.1-0.3,0-0.7,0.1-1c0.1-0.2,0.1-0.6,0.3-1c0.1-0.4,0.3-0.9,0.4-1.3c0.1-0.5,0.3-1,0.4-1.5
	c0.1-0.5,0.2-0.9,0.2-1.3c0-0.4,0-0.7-0.1-1c-0.1-0.3-0.2-0.4-0.4-0.4c-0.3,0-0.6,0.1-0.9,0.3c-0.3,0.2-0.6,0.4-0.9,0.8
	c-0.3,0.3-0.6,0.7-0.9,1.1c-0.3,0.4-0.6,0.8-0.9,1.3c-0.2,0.6-0.3,1.1-0.4,1.6c-0.1,0.4-0.2,0.9-0.3,1.2c-0.1,0.4-0.2,0.7-0.2,1
	c-0.1,0.3-0.1,0.5-0.2,0.8c-0.1,0.2-0.2,0.3-0.5,0.5c-0.3,0.2-0.5,0.3-0.8,0.4c-0.3,0.1-0.6,0.2-0.8,0.2c-0.2,0-0.3-0.1-0.3-0.2
	c0-0.1,0.1-0.3,0.2-0.7c0.1-0.4,0.2-0.8,0.3-1.3c0.1-0.5,0.3-1,0.4-1.6c0,0,0,0,0,0c-0.3,0.3-0.5,0.7-0.8,1c-0.4,0.5-0.8,1-1.2,1.4
	c-0.4,0.4-0.7,0.7-1,0.9c-0.2,0.1-0.4,0.2-0.6,0.3c-0.2,0.1-0.5,0.1-0.7,0.1c-0.2,0-0.5,0-0.7,0c-0.2,0-0.4-0.1-0.6-0.2
	c-0.2-0.1-0.3-0.3-0.4-0.5c-0.1-0.2-0.2-0.4-0.3-0.8c-0.1-0.3-0.1-0.7-0.1-1.2c-0.4,0.7-0.9,1.2-1.4,1.6c-0.5,0.4-1,0.7-1.5,0.8
	c-0.5,0.2-1.1,0.3-1.6,0.3c-0.2,0-0.5-0.1-0.8-0.3c-0.3-0.2-0.5-0.4-0.7-0.8c-0.2-0.4-0.3-0.8-0.4-1.4c-0.1-0.6,0-1.3,0.2-2
	c0.2-1.1,0.6-2.1,1.2-2.9c0.5-0.9,1.1-1.6,1.8-2.3c0.6-0.6,1.3-1.1,1.9-1.4c0.6-0.3,1.1-0.5,1.5-0.4c0.5,0.1,0.9,0.2,1.2,0.4
	c0.2,0.2,0.4,0.4,0.5,0.8c0.1,0.3-0.1,0.8-0.4,1.4c0.2-0.1,0.5-0.1,0.6-0.1c0.2,0,0.3,0,0.4,0c0.1,0,0.2,0,0.2,0c0,0,0,0.1,0,0.2
	c0,0.1,0,0.3-0.1,0.6s-0.1,0.7-0.2,1.2c-0.1,0.5-0.2,1.2-0.4,2c0,0.2-0.1,0.3-0.1,0.4c0,0.1-0.1,0.3-0.1,0.4s-0.1,0.3-0.1,0.5
	c0,0.2-0.1,0.4-0.1,0.7c0,0.2,0,0.3,0,0.5c0,0.2,0,0.4,0.1,0.5c0.1,0.2,0.1,0.3,0.3,0.4c0.1,0.1,0.3,0.1,0.5,0.1
	c0.2,0,0.4-0.1,0.7-0.3c0.3-0.2,0.6-0.5,0.9-0.8c0.3-0.3,0.6-0.7,1-1.1c0.3-0.4,0.7-0.8,1-1.2c0.3-0.4,0.6-0.7,0.8-1
	c0-0.1,0.1-0.1,0.1-0.1c0-0.2,0.1-0.4,0.1-0.6c0.1-0.4,0.2-0.9,0.3-1.5c0.1-0.6,0.3-1.2,0.5-1.8c0.1-0.1,0.3-0.2,0.4-0.3
	c0.1-0.1,0.3-0.1,0.4-0.1c0.1-0.1,0.3-0.1,0.4-0.1c0.1,0,0.3,0,0.4,0c0.1,0,0.3,0,0.4,0.1c0.1,0,0.3,0.1,0.4,0.2
	c-0.1,0.1-0.1,0.3-0.2,0.5c-0.1,0.2-0.1,0.5-0.2,0.7c-0.1,0.3-0.2,0.6-0.3,0.9c0.2-0.3,0.5-0.6,0.8-1c0.3-0.3,0.6-0.6,1-0.9
	c0.3-0.3,0.7-0.5,1.1-0.6c0.4-0.2,0.8-0.3,1.2-0.3c0.3,0,0.6,0.1,0.9,0.3c0.3,0.2,0.5,0.5,0.6,0.8c0.1,0.3,0.2,0.8,0.3,1.2
	c0,0.5,0,1-0.2,1.6l-0.3,1.2c-0.1,0.4-0.2,0.8-0.3,1.3c-0.1,0.5-0.3,1.1-0.5,1.7c-0.1,0.4-0.1,0.7-0.1,1c0,0.3,0.2,0.4,0.5,0.4
	s0.7-0.2,1.2-0.6s1-0.9,1.5-1.4c0.4-0.5,0.8-1,1.2-1.5c0.1-0.6,0.2-1.1,0.4-1.7c0.4-0.9,0.8-1.7,1.3-2.4c0.5-0.7,1.1-1.2,1.8-1.6
	c0.7-0.4,1.4-0.6,2-0.6c0.3,0,0.6,0.1,0.8,0.2c0.2,0.1,0.5,0.3,0.6,0.6c0.2,0.2,0.3,0.5,0.4,0.8c0.1,0.3,0.2,0.5,0.3,0.8
	c0.1-0.5,0.2-1,0.3-1.5c0.1-0.5,0.2-1,0.3-1.4C84.8,8,85,7.3,85.1,6.5c0.2-0.7,0.4-1.4,0.6-2.2c0.2-0.8,0.5-1.7,0.8-2.7
	c0.2-0.1,0.3-0.2,0.5-0.3c0.2-0.1,0.3-0.1,0.4-0.2c0.2-0.1,0.3-0.1,0.4-0.1c0.2,0,0.3,0,0.5,0.1s0.3,0.2,0.4,0.3
	c0.1,0.2,0.2,0.5,0.2,0.8c0,0.4,0,0.9,0,1.5c0,0.8-0.2,1.6-0.4,2.5c-0.2,0.9-0.6,1.9-0.9,2.8c-0.4,1-0.8,2-1.3,2.9
	c-0.5,1-1,1.9-1.6,2.8c-0.1,0.5-0.2,1.1-0.3,1.6c-0.1,0.5-0.1,0.9-0.1,1.2c0,0.4,0.1,0.8,0.2,0.9s0.4,0.3,0.6,0.3
	c0.2,0,0.5-0.1,0.9-0.4c0.4-0.2,0.7-0.6,1.1-0.9c0.4-0.4,0.8-0.8,1.2-1.2c0.4-0.4,0.8-0.9,1.1-1.3c0.3-0.4,0.6-0.7,0.9-1
	c0.2-0.3,0.4-0.5,0.5-0.6c0.1-0.1,0.2-0.2,0.3-0.2c0.1,0,0.2,0,0.3,0.1c0.1,0.1,0.1,0.1,0.1,0.3S91.5,14,91.3,14.2z M58.6,11.7
	c-0.1,0-0.2,0-0.3,0.1c-0.1,0-0.2,0.1-0.3,0.1c-0.1,0-0.3,0-0.4,0.1c0.1-0.3,0.2-0.5,0.3-0.7c0-0.2,0-0.3,0-0.4
	c0-0.1-0.1-0.2-0.1-0.3c-0.2-0.2-0.5,0-1,0.4c-0.5,0.4-1,1.2-1.7,2.3c-0.3,0.5-0.5,0.9-0.6,1.5c-0.2,0.5-0.3,1-0.3,1.5
	C54,16.6,54,17,54,17.4c0,0.3,0.1,0.6,0.2,0.7c0.2,0.2,0.4,0.3,0.7,0.3c0.2,0,0.5-0.1,0.8-0.2c0.3-0.1,0.5-0.3,0.8-0.5
	c0.3-0.2,0.5-0.4,0.7-0.7c0.2-0.2,0.4-0.4,0.5-0.6s0.2-0.3,0.2-0.4c0.1-0.4,0.2-0.8,0.3-1.2s0.2-0.9,0.3-1.4
	c0.1-0.4,0.2-0.8,0.2-1.1S58.7,11.7,58.6,11.7z M83.4,13.3C83.4,13.3,83.4,13.3,83.4,13.3c-0.3,0.1-0.4,0.1-0.5,0
	c-0.1-0.1-0.1-0.3-0.1-0.5c0-0.1,0-0.3,0-0.6c0-0.3-0.1-0.6-0.1-0.8c-0.1-0.3-0.2-0.5-0.4-0.8c-0.2-0.2-0.4-0.3-0.7-0.3
	c-0.4,0-0.8,0.2-1.2,0.6c-0.4,0.4-0.8,0.9-1.2,1.5c-0.4,0.6-0.7,1.2-0.9,1.9c-0.2,0.7-0.4,1.3-0.4,1.8c0,0.8,0.1,1.5,0.3,1.8
	c0.2,0.4,0.6,0.6,1,0.6c0.3,0,0.7-0.1,1-0.4c0.4-0.2,0.7-0.5,1.1-0.9c0.4-0.4,0.7-0.7,1-1.1c0.3-0.4,0.6-0.7,0.8-0.9
	c0.1-0.3,0.1-0.7,0.2-1C83.3,13.9,83.4,13.6,83.4,13.3C83.5,13.2,83.4,13.3,83.4,13.3z M51.8,4.1c-0.2,0.8-0.5,1.8-0.9,3.3
	c-0.3,1.2-0.7,2.9-1.3,5c-0.5,2.1-1.2,4.7-2,7.9c-0.1,0.1-0.2,0.1-0.3,0.2c-0.1,0-0.2,0.1-0.3,0.1c-0.1,0-0.3,0-0.4,0
	c-0.1,0-0.2-0.1-0.4-0.2c-0.1-0.1-0.2-0.2-0.3-0.3c-0.1-0.1-0.2-0.3-0.2-0.5c0.3-1.1,0.5-2,0.7-2.9c-0.4,0.6-0.9,1.1-1.4,1.6
	c-0.6,0.7-1.3,1.2-1.8,1.7c-0.6,0.4-1.1,0.7-1.5,0.7c-0.6,0-1.1-0.1-1.5-0.3c-0.4-0.2-0.7-0.5-0.9-0.8c-0.2-0.3-0.4-0.7-0.5-1.1
	c-0.1-0.4-0.1-0.8-0.1-1.1c0-0.3,0.1-0.7,0.2-1.4c-0.2,0.2-0.4,0.5-0.6,0.8c-0.4,0.5-0.8,1-1.2,1.5c-0.4,0.5-0.9,1-1.4,1.4
	c-0.5,0.4-1,0.8-1.5,1c-0.5,0.3-0.9,0.4-1.4,0.4c-0.5,0-0.8-0.1-1.1-0.3c-0.3-0.2-0.5-0.4-0.7-0.6c-0.2-0.3-0.3-0.5-0.4-0.8
	c-0.1-0.3-0.1-0.6-0.1-0.9c0-0.2,0.1-0.4,0.2-0.7c0.1-0.2,0.2-0.5,0.3-0.7c0.1-0.3,0.3-0.5,0.4-0.8c0.1-0.3,0.3-0.5,0.4-0.8
	c0.3-0.5,0.5-0.9,0.7-1.3c0.2-0.4,0.3-0.7,0.3-0.9c0-0.2,0-0.3-0.1-0.4c-0.1-0.1-0.2-0.2-0.3-0.2c-0.1,0-0.2,0-0.2,0
	c0,0-0.1,0-0.1,0c0,0-0.1,0-0.2,0c-0.1,0-0.2,0-0.4,0c-0.2,0-0.4,0-0.6-0.1c-0.2-0.1-0.3-0.1-0.4-0.2c-0.1,0.1-0.2,0.4-0.5,0.8
	c-0.2,0.4-0.5,0.9-0.9,1.4c-0.3,0.5-0.7,1.1-1,1.7c-0.4,0.6-0.7,1.2-1,1.7c-0.3,0.5-0.6,1-0.8,1.3c-0.2,0.4-0.4,0.6-0.4,0.6
	c-0.1,0.2-0.3,0.3-0.4,0.4c-0.1,0.1-0.3,0.1-0.4,0c-0.1,0-0.2-0.1-0.2-0.3c0-0.1,0-0.3,0.1-0.5c0.1-0.1,0.2-0.3,0.4-0.7
	c0.2-0.4,0.4-0.8,0.7-1.3c0.3-0.5,0.5-1.1,0.8-1.7c0.3-0.6,0.6-1.2,0.9-1.7c0.1-0.2,0.2-0.4,0.3-0.6c-0.2,0.2-0.4,0.3-0.6,0.5
	c-0.5,0.4-1,0.7-1.6,1.1s-1.1,0.6-1.7,0.8c-0.2,0.7-0.4,1.3-0.7,1.9c-0.3,0.6-0.7,1.1-1.1,1.5c-0.4,0.4-0.9,0.8-1.4,1
	c-0.5,0.2-1.1,0.4-1.7,0.4c-0.7,0-1.3-0.2-1.7-0.5c-0.4-0.3-0.7-0.7-0.9-1.1c-0.2-0.5-0.3-1-0.4-1.5c0-0.5-0.1-1.1-0.1-1.5
	c0-0.3,0-0.7,0.1-1.1c0.1-0.4,0.2-0.8,0.3-1.2c0.1-0.4,0.3-0.8,0.5-1.3c0.2-0.4,0.5-0.8,0.8-1.2c0.1-0.3,0.3-0.6,0.5-0.8
	c0.2-0.2,0.5-0.4,0.8-0.6c0.3-0.1,0.6-0.3,0.9-0.3c0.3-0.1,0.7-0.1,1-0.1c0.1,0,0.1,0,0.1,0c0,0,0.1,0,0.1,0.1
	c0.2,0,0.5,0.1,0.9,0.3c0.3,0.2,0.7,0.4,1,0.7c0.3,0.3,0.6,0.7,0.8,1.2s0.3,1.1,0.3,1.8c0,0.1,0,0.3,0,0.5c0,0.2,0,0.4-0.1,0.5
	c0.4-0.2,0.8-0.4,1.3-0.6c0.4-0.2,0.9-0.5,1.3-0.7c0.4-0.3,0.8-0.5,1.1-0.8c0.4-0.3,0.6-0.5,0.8-0.7c-0.1-0.1-0.3-0.2-0.3-0.3
	c-0.1-0.1-0.1-0.3-0.2-0.5c0-0.2,0-0.5,0.2-0.9c0.1-0.4,0.3-0.7,0.6-1.1c0.2-0.3,0.5-0.6,0.8-0.9c0.3-0.2,0.6-0.4,0.8-0.4
	c0.5,0,0.8,0.2,1,0.5c0.2,0.3,0.3,0.6,0.4,1c0,0.2,0,0.5-0.1,0.9c-0.1,0.4-0.2,0.7-0.4,1c0.1,0,0.1,0.1,0.2,0.1
	c0.1,0,0.2,0.1,0.4,0.1c0.3,0,0.5,0,0.6-0.1c0.1,0,0.3-0.1,0.5-0.1c0.3,0,0.5,0.1,0.7,0.2c0.2,0.1,0.4,0.3,0.5,0.6
	c0.1,0.2,0.2,0.5,0.3,0.7C35,12.5,35,12.8,35,13c0.1,0.4-0.1,0.9-0.3,1.4c-0.3,0.5-0.6,1-1,1.6c-0.2,0.4-0.5,0.7-0.7,1.2
	c-0.2,0.4-0.4,0.8-0.3,1.2c0,0.2,0.1,0.4,0.2,0.6c0.1,0.1,0.3,0.2,0.7,0.2c0.3,0,0.6-0.1,1-0.3c0.4-0.2,0.7-0.5,1.1-0.8
	c0.4-0.3,0.8-0.7,1.1-1.1c0.4-0.4,0.7-0.8,1-1.2c0.3-0.4,0.6-0.8,0.8-1.1c0.2-0.3,0.4-0.5,0.5-0.7c0.1-0.1,0.1-0.1,0.2-0.2
	c0-0.1,0.1-0.3,0.1-0.4c0.2-1,0.4-2,0.6-3.1c0.2-1.1,0.5-2.2,0.7-3.2c-0.3,0-0.6,0.1-0.9,0.1C39.4,7,39.2,7,38.9,7
	c-0.6,0-1.1-0.1-1.6-0.2c-0.5-0.1-0.9-0.3-1.1-0.4C36.1,6.4,36,6.3,36,6.1c0-0.1,0.1-0.3,0.2-0.4s0.2-0.2,0.3-0.3
	c0.1-0.1,0.3-0.1,0.4-0.1c0.3,0,0.7,0.1,1.1,0.1c0.4,0,0.8,0,1.3,0c0.3,0,0.7,0,1-0.1c0.3,0,0.6-0.1,0.9-0.1
	c0.2-0.8,0.5-1.6,0.7-2.2c0.2-0.6,0.4-1.1,0.6-1.3c0.1-0.1,0.2-0.2,0.4-0.2c0.2-0.1,0.4-0.1,0.6-0.1c0.2,0,0.4,0,0.6,0
	c0.2,0,0.3,0.1,0.4,0.2c0.1,0.1,0.1,0.5,0.1,1.1c0,0.6-0.1,1.3-0.3,2.2c0.7,0,1.4,0,2,0.1c0.6,0.1,1.1,0.2,1.5,0.3
	c0.4,0.1,0.7,0.2,1,0.3c0.2,0.1,0.3,0.1,0.4,0.2c0.1-0.4,0.2-0.7,0.2-1c0.1-0.3,0.1-0.7,0.1-1c0-0.3,0.1-0.6,0.1-0.9s0-0.6-0.1-0.8
	c0.1-0.1,0.3-0.2,0.5-0.2c0.2-0.1,0.3-0.1,0.5-0.1c0.2-0.1,0.4-0.1,0.6-0.1c0.2,0,0.4-0.1,0.5-0.1c0.1,0,0.3,0,0.4,0
	c0.1,0,0.2,0.1,0.2,0.2c0.1,0.1,0.2,0.3,0.1,0.5c0,0.3,0,0.5-0.1,0.8C52,3.3,51.9,3.7,51.8,4.1z M18.3,14.3
	c-0.1,0.4-0.2,0.7-0.3,1.1c-0.1,0.4-0.1,0.7-0.1,1c0,0.3,0,0.6,0.1,0.9c0,0.3,0.1,0.6,0.2,0.8c0.1,0.2,0.2,0.4,0.4,0.6
	c0.2,0.1,0.4,0.2,0.7,0.2c0.3,0,0.6-0.1,0.9-0.2c0.3-0.1,0.5-0.3,0.7-0.6c0.2-0.2,0.4-0.5,0.6-0.8c0.2-0.3,0.3-0.6,0.4-1
	c-0.1,0-0.2,0-0.4,0c-0.1,0-0.2,0-0.4,0c-0.7,0-1.2-0.2-1.7-0.6S18.6,14.9,18.3,14.3z M22.6,12.6c0-0.4-0.1-0.7-0.2-1
	c-0.1-0.3-0.2-0.5-0.4-0.7c-0.2-0.2-0.3-0.3-0.5-0.3c-0.3,0-0.7,0.1-1,0.3c-0.3,0.2-0.6,0.4-0.9,0.8c-0.1,0.2-0.1,0.3-0.1,0.5
	c0,0.3,0,0.6,0.1,0.9c0,0.3,0.1,0.6,0.3,0.8c0.1,0.2,0.4,0.5,0.7,0.6c0.3,0.2,0.7,0.3,1.3,0.3c0.1,0,0.2,0,0.3,0c0.1,0,0.2,0,0.3,0
	c0.1-0.2,0.1-0.4,0.1-0.6c0-0.2,0.1-0.3,0.1-0.5C22.6,13.3,22.6,13,22.6,12.6z M48.4,6.8c-0.2,0-0.4-0.1-0.6-0.1
	c-0.2-0.1-0.5-0.1-0.8-0.1c-0.3,0-0.7-0.1-1.1-0.1c-0.4,0-0.9-0.1-1.5-0.1c-0.1,0-0.2,0-0.4,0c-0.1,0-0.3,0-0.4,0
	c-0.1,0.3-0.1,0.6-0.2,0.8c-0.1,0.3-0.1,0.6-0.3,0.9c-0.2,0.7-0.5,1.5-0.8,2.3c-0.3,0.7-0.6,1.5-0.9,2.5c-0.4,0.9-0.8,1.9-1.2,3
	c-0.1,0.8-0.1,1.3,0,1.7s0.3,0.7,0.5,0.9c0.2,0.2,0.5,0.3,0.8,0.3c0.3,0,0.6-0.1,1-0.3c0.4-0.2,0.8-0.5,1.2-0.9
	c0.4-0.4,0.8-0.8,1.2-1.2c0.4-0.4,0.8-0.9,1.1-1.3c0.3-0.3,0.5-0.7,0.8-0.9c0.2-0.9,0.4-1.8,0.6-2.5c0.5-2,0.8-3.5,1.1-4.5
	c0-0.1,0.1-0.2,0.1-0.3C48.6,6.9,48.5,6.9,48.4,6.8z M15.7,9.2c-0.5,1.1-1.3,2.1-2.2,3c-0.9,0.9-2.1,1.7-3.4,2.3
	c-1.3,0.6-2.9,1-4.6,1.1c-0.1,0.7-0.3,1.4-0.4,2.1C5,18.3,4.8,19,4.7,19.7c-0.2,0.7-0.3,1.3-0.5,1.9c-0.2,0.6-0.3,1.1-0.5,1.5
	c-0.2,0.5-0.4,0.8-0.7,1.1c-0.3,0.3-0.7,0.4-1.3,0.4c-0.3,0-0.6-0.1-0.9-0.2C0.5,24.2,0.2,24,0,23.7c0.1-0.1,0.2-0.1,0.3-0.3
	c0.2-0.1,0.3-0.4,0.5-0.7c0.2-0.3,0.4-0.8,0.7-1.5c0.2-0.6,0.5-1.5,0.8-2.6c0.1-0.6,0.3-1.3,0.6-2.2c0.2-0.9,0.5-1.9,0.8-2.9
	c0.3-1,0.5-2.1,0.8-3.2C4.7,9.4,5,8.4,5.3,7.4S5.8,5.5,6,4.8C6.2,4,6.3,3.3,6.5,2.9c-0.3,0.2-0.7,0.4-1,0.7C5.2,3.8,4.9,4.1,4.6,4.4
	C4.3,4.7,4,5,3.7,5.3C3.4,5.1,3.3,4.9,3.1,4.7C3.1,4.6,3,4.5,3,4.3C2.9,4.1,2.8,3.8,2.8,3.5c0-0.3,0.2-0.6,0.7-0.9
	C3.7,2.5,4,2.3,4.5,2c0.5-0.3,1-0.6,1.7-0.9c0.7-0.3,1.5-0.5,2.4-0.8s1.9-0.3,3-0.3s2,0.2,2.7,0.7c0.7,0.4,1.2,1,1.6,1.6
	c0.4,0.6,0.6,1.3,0.7,2c0.1,0.7,0.1,1.3,0.1,1.8C16.6,7.1,16.3,8.1,15.7,9.2z M13.9,3.8c-0.2-0.6-0.5-1.1-0.8-1.4
	c-0.4-0.4-0.8-0.6-1.2-0.8c-0.5-0.1-0.9-0.2-1.4-0.2c-0.4,0-0.9,0.1-1.3,0.2C8.8,1.7,8.4,1.8,8,2C8,2,8.1,2.1,8.2,2.1
	c0.1,0.1,0.2,0.3,0.2,0.4C8,4.3,7.6,5.7,7.4,6.9C7.1,8,6.9,8.9,6.7,9.7c-0.2,0.8-0.3,1.5-0.4,2c-0.1,0.3-0.1,0.6-0.2,1.1
	c-0.1,0.4-0.2,1-0.3,1.5c0.5-0.1,1-0.2,1.6-0.4c0.6-0.2,1.2-0.4,1.7-0.8c0.6-0.3,1.1-0.7,1.7-1.1c0.6-0.4,1.1-1,1.5-1.6
	c0.5-0.6,0.8-1.3,1.1-2C13.8,7.7,14,6.9,14.1,6C14.2,5.1,14.1,4.4,13.9,3.8z"/>
</svg>
