<?xml version="1.0" encoding="utf-8"?>
<!-- Generator: Adobe Illustrator 21.1.0, SVG Export Plug-In . SVG Version: 6.00 Build 0)  -->
<svg version="1.1" id="Слой_1" xmlns="http://www.w3.org/2000/svg" xmlns:xlink="http://www.w3.org/1999/xlink" x="0px" y="0px"
	 viewBox="0 0 116.7 116.7" style="enable-background:new 0 0 116.7 116.7;" xml:space="preserve">
<style type="text/css">
	.st0{fill:#343E5C;}
</style>
<path class="st0" d="M113.3,113.3c-4.5,4.5-11.7,4.5-16.2,0L73.4,89.7c-18.5,11.2-42.9,9-59-7c-18.8-18.8-18.8-49.3,0-68.2
	c18.8-18.8,49.3-18.8,68.2,0c16,16,18.3,40.4,7,59l23.7,23.7C117.8,101.6,117.8,108.8,113.3,113.3z M69.6,27.5
	c-11.7-11.7-30.5-11.7-42.2,0c-11.7,11.6-11.7,30.5,0,42.2c11.6,11.7,30.5,11.7,42.2,0C81.3,58,81.3,39.1,69.6,27.5z"/>
</svg>
