<?xml version="1.0" encoding="utf-8"?>
<!-- Generator: Adobe Illustrator 21.1.0, SVG Export Plug-In . SVG Version: 6.00 Build 0)  -->
<svg version="1.1" id="Слой_1" xmlns="http://www.w3.org/2000/svg" xmlns:xlink="http://www.w3.org/1999/xlink" x="0px" y="0px"
	 viewBox="0 0 225 222.2" style="enable-background:new 0 0 225 222.2;" xml:space="preserve">
<style type="text/css">
	.st0{fill:none;stroke:#666666;stroke-width:10;stroke-miterlimit:10;}
	.st1{fill:#666666;stroke:#666666;stroke-width:5;stroke-miterlimit:10;}
</style>
<path class="st0" d="M167.8,32.3H74.6c-22.8,0-41.4,18.2-41.4,40.3v94.1c0,22.2,18.6,40.3,41.4,40.3h93.2
	c22.8,0,41.4-18.2,41.4-40.3V72.6C209.2,50.4,190.6,32.3,167.8,32.3z"/>
<ellipse class="st0" cx="121.2" cy="119.7" rx="46.9" ry="45.7"/>
<path class="st1" d="M120.5,69.3c17.4,0,36.9,9.5,44,21.1h42.3V71.5c0-22.3-18.5-40.3-41.4-40.3h-88c-22.9,0-41.4,18.1-41.4,40.3
	l0,18.9c1.1-0.5,46.3-0.6,46.3-0.6C87.9,80.1,103.4,69.3,120.5,69.3z M192,75.9H161V45.6H192V75.9z"/>
</svg>
