<?xml version="1.0" encoding="utf-8"?>
<!-- Generator: Adobe Illustrator 21.1.0, SVG Export Plug-In . SVG Version: 6.00 Build 0)  -->
<svg version="1.1" id="Слой_1" xmlns="http://www.w3.org/2000/svg" xmlns:xlink="http://www.w3.org/1999/xlink" x="0px" y="0px"
	 viewBox="0 0 612 792" style="enable-background:new 0 0 612 792;" xml:space="preserve">
<style type="text/css">
	.st0{fill:#CCCCCC;}
</style>
<g>
	<path class="st0" d="M524.8,619.6c-10.6,16.2-32.6,24.1-50.3,30.2c-23.1,7.7-45.7,10.7-69.7,6.5c-33.2-5.9-60.8-24.7-89.2-41.1
		c-20.4-11.7-39.8-25.1-57.3-40.7c-54.1-48.2-114.4-134.4-141.2-201.7c-8.7-21.8-14.6-44.6-18.6-67.7c-5.7-32.3-14-64.7-8.1-97.9
		c4.2-23.9,14.8-44.2,29.9-63.2c11.8-14.5,26.7-32.5,45.5-36.9c12.7-3.3,38.7-4.6,51.6-2.3c2.5,0.4,5,0.9,7.3,2.4
		c7.1,3.8,11.8,22.7,14.1,30.5c7.8,22.4,15.3,45,23.5,67.1c4.1,10.3,12.8,23.6,10.8,34.7c-3.8,21.8-74.1,42.2-77.5,61.5
		c-1.7,9.6,5,23.7,8.5,33.2c24.6,71.4,61.7,124.3,120.3,171.9c7.7,6.5,18.6,17.6,28.3,19.3c19.3,3.4,62.5-55.6,84.3-51.8
		c11.1,2,20.6,14.7,28.9,22c17.9,15.3,36.7,30,55,45.1c6.5,4.8,22.6,15.8,23.8,23.7c0.6,2.7,0.2,5.2-0.3,7.7
		C542.3,584.8,532.2,608.8,524.8,619.6z"/>
</g>
</svg>
