<?xml version="1.0" encoding="utf-8"?>
<!-- Generator: Adobe Illustrator 21.1.0, SVG Export Plug-In . SVG Version: 6.00 Build 0)  -->
<svg version="1.1" id="Слой_1" xmlns="http://www.w3.org/2000/svg" xmlns:xlink="http://www.w3.org/1999/xlink" x="0px" y="0px"
	 viewBox="0 0 35.5 51.8" style="enable-background:new 0 0 35.5 51.8;" xml:space="preserve">
<style type="text/css">
	.st0{fill:#FFFFFF;}
</style>
<g>
	<path class="st0" d="M25.4,12.8L12.2,26l13.2,13.2c0.2,0.2,0.3,0.5,0.3,0.8s-0.1,0.6-0.3,0.8l-1.7,1.7c-0.2,0.2-0.5,0.3-0.8,0.3
		s-0.6-0.1-0.8-0.3L6.6,26.7c-0.2-0.2-0.3-0.5-0.3-0.8s0.1-0.6,0.3-0.8L22.2,9.6c0.2-0.2,0.5-0.3,0.8-0.3s0.6,0.1,0.8,0.3l1.7,1.7
		c0.2,0.2,0.3,0.5,0.3,0.8C25.7,12.3,25.6,12.6,25.4,12.8z"/>
</g>
</svg>
