<?xml version="1.0" encoding="utf-8"?>
<!-- Generator: Adobe Illustrator 21.1.0, SVG Export Plug-In . SVG Version: 6.00 Build 0)  -->
<svg version="1.1" id="Слой_1" xmlns="http://www.w3.org/2000/svg" xmlns:xlink="http://www.w3.org/1999/xlink" x="0px" y="0px"
	 viewBox="0 0 60 72" style="enable-background:new 0 0 60 72;" xml:space="preserve">
<style type="text/css">
	.st0{fill:#FFFFFF;}
</style>
<g>
	<path class="st0" d="M38.6,39L23,54.6c-0.2,0.2-0.5,0.3-0.8,0.3s-0.6-0.1-0.8-0.3l-1.7-1.7c-0.2-0.2-0.3-0.5-0.3-0.8
		c0-0.3,0.1-0.6,0.3-0.8l13.2-13.2L19.8,25.1c-0.2-0.2-0.3-0.5-0.3-0.8s0.1-0.6,0.3-0.8l1.7-1.7c0.2-0.2,0.5-0.3,0.8-0.3
		s0.6,0.1,0.8,0.3l15.6,15.6c0.2,0.2,0.3,0.5,0.3,0.8S38.8,38.8,38.6,39z"/>
</g>
</svg>
