<?xml version="1.0" encoding="utf-8"?>
<!-- Generator: Adobe Illustrator 21.1.0, SVG Export Plug-In . SVG Version: 6.00 Build 0)  -->
<svg version="1.1" id="Слой_1" xmlns="http://www.w3.org/2000/svg" xmlns:xlink="http://www.w3.org/1999/xlink" x="0px" y="0px"
	 viewBox="0 0 313 387" style="enable-background:new 0 0 313 387;" xml:space="preserve">
<style type="text/css">
	.st0{fill:#999999;}
</style>
<g transform="translate(0.000000,387.000000) scale(0.100000,-0.100000)">
	<path class="st0" d="M2153.5,2010.6c13.9,38,53.3,92.5,85.4,114.6c11.4,7.8,34.7,37.2,44.1,47.3c27.9,30.1,30.4,43.3,43.4,75.2
		c8.9,22.1,26.8,67.7,35,90c26.4,72,31.8,225.6,18,301.6c-3.1,16.9-10.3,35.2-14.4,72.2c-17.8,161.2,48.9,419.6-17.8,622.1
		c-18.5,56.2-70.1,163.5-97.2,216.7c-56,109.8-173.6,142.5-290,151.4c-24.3,1.9-75.3,0.8-96.8,12.3
		c-55.2,29.5-147.5,104.4-213.3,131.2c-62.7,25.5-318.3,35.6-411.3-2.5c-47.3-19.4-135.9-64.9-176.3-96.3
		c-57.2-44.3-140.9-145.8-178.8-207.5c-42.9-69.8-105.8-228.1-117.9-309.1c-8.8-59.6-14.6-180.1-15.9-240.3
		c-1.1-48.6,3.2-146.1,10-194.3c3.2-22.7,13.9-67.3,20.7-89.2c2.3-7.6,8.7-22.4,9.3-30.3c0.6-8.3-1.8-25.2-4.7-33
		c-1.6-4.4-6.6-12.6-10-15.8c-3.5-3.2-13-6.9-15.3-11c-25.9-46.9-6.5-193.5-2.1-215.9c10.4-53.2,36.2-129,58.1-172.6
		c25.8-51.4,49-78.7,113-128.5c17-13,27.9-24.4,31-35.9c16.7-61.2,26.6-144.7,58.9-201.8c25.9-45.8,91.3-129.4,114.4-176.7
		c20.1-41.1,37.4-132.7,6.8-165.5c-46.8-50.1-178.7-102.3-242-128.5c-120.5-49.9-363.4-121.2-498-199.2
		c-172.5-100-272.5-177.5-370-350.7c-32.4-57.6-21.9-197-25-263c-9.9-208,6.4-238.7,17-258c10.5-19.1,26.3-37.3,43-52.8
		c75.4-69.9,173.4-126.8,373.9-166.2C893.4,11.3,1277.2,7.3,1555,9.8c322.2,2.9,706.4,12.7,1148.9,130.7
		c85.9,22.9,257.3,91.1,325,148.6c33.8,28.6,75.5,59.5,86.9,90.3c20,54.2,9.3,218.2,9.3,218.2c-1.3,130,4.7,152.5-15,185
		c-143.1,235.5-286.7,336.7-450,420c-110.9,56.6-392.9,168.5-511,207.9c-46.5,15.5-164,56.3-180.9,104.6
		c-11.6,33.2-11.7,104.6,5.1,135.6c24.7,45.6,77.9,133.5,101.9,179.4C2097.8,1873.6,2111.7,1896.7,2153.5,2010.6z"/>
</g>
</svg>
