<?xml version="1.0" encoding="utf-8"?>
<!-- Generator: Adobe Illustrator 21.1.0, SVG Export Plug-In . SVG Version: 6.00 Build 0)  -->
<svg version="1.1" id="Слой_1" xmlns="http://www.w3.org/2000/svg" xmlns:xlink="http://www.w3.org/1999/xlink" x="0px" y="0px"
	 viewBox="0 0 22.8 34.1" style="enable-background:new 0 0 22.8 34.1;" xml:space="preserve">
<style type="text/css">
	.st0{fill:#666666;}
</style>
<g>
	<path class="st0" d="M5.2,5.3h6.6c1.3,0,2.3,0.1,2.9,0.2c0.6,0.1,1.2,0.3,1.7,0.7c0.5,0.3,0.9,0.8,1.3,1.4c0.3,0.6,0.5,1.2,0.5,1.9
		c0,0.8-0.2,1.5-0.6,2.1c-0.4,0.6-1,1.1-1.7,1.4c1,0.3,1.8,0.8,2.3,1.5C18.7,15.2,19,16,19,17c0,0.7-0.2,1.5-0.5,2.2
		c-0.3,0.7-0.8,1.3-1.4,1.7c-0.6,0.4-1.3,0.7-2.2,0.8c-0.6,0.1-1.9,0.1-4,0.1H5.2V5.3z M8.5,8v3.8h2.2c1.3,0,2.1,0,2.4-0.1
		c0.6-0.1,1-0.3,1.3-0.6c0.3-0.3,0.5-0.8,0.5-1.3c0-0.5-0.1-0.9-0.4-1.2c-0.3-0.3-0.7-0.5-1.3-0.6C12.9,8,12,8,10.4,8H8.5z
		 M8.5,14.6V19h3.1c1.2,0,2,0,2.3-0.1c0.5-0.1,0.9-0.3,1.2-0.7c0.3-0.3,0.5-0.8,0.5-1.4c0-0.5-0.1-0.9-0.4-1.3
		c-0.2-0.3-0.6-0.6-1-0.8s-1.4-0.2-2.9-0.2H8.5z"/>
</g>
</svg>
