<?xml version="1.0" encoding="utf-8"?>
<!-- Generator: Adobe Illustrator 21.1.0, SVG Export Plug-In . SVG Version: 6.00 Build 0)  -->
<svg version="1.1" id="Слой_1" xmlns="http://www.w3.org/2000/svg" xmlns:xlink="http://www.w3.org/1999/xlink" x="0px" y="0px"
	 viewBox="0 0 566.1 532" style="enable-background:new 0 0 566.1 532;" xml:space="preserve">
<style type="text/css">
	.st0{fill:#343E5C;}
</style>
<path class="st0" d="M565.9,129l-31.1,93c-11.5,26.1-27.9,62-62.3,62H172.4l3.7,31h389.8l-31.1,62H141l-20,2.4L84.1,67H36.7
	C19.5,67,5.6,53.1,5.6,36c0-17.2,11-32.9,28.2-32.9l105.4-0.4l7.9,67c3.9-1.5,8.3-2.6,14.2-2.6h373.6C569.2,67,565.9,94.7,565.9,129
	z M192.3,408c34.4,0,62.3,27.7,62.3,62c0,34.2-27.9,62-62.3,62s-62.3-27.7-62.3-62C130.1,435.7,157.9,408,192.3,408z M441.4,408
	c34.4,0,62.3,27.7,62.3,62c0,34.2-27.9,62-62.3,62c-34.4,0-62.3-27.7-62.3-62C379.1,435.7,407,408,441.4,408z"/>
</svg>
